<?xml version="1.0" standalone="no"?>
<!DOCTYPE svg PUBLIC "-//W3C//DTD SVG 20010904//EN"
 "http://www.w3.org/TR/2001/REC-SVG-20010904/DTD/svg10.dtd">
<svg version="1.0" xmlns="http://www.w3.org/2000/svg"
 width="128.000000pt" height="128.000000pt" viewBox="0 0 128.000000 128.000000"
 preserveAspectRatio="xMidYMid meet">
<metadata>
Created by potrace 1.14, written by Peter Selinger 2001-2017
</metadata>
<g transform="translate(0.000000,128.000000) scale(0.100000,-0.100000)"
fill="#000000" stroke="none">
<path d="M290 1107 c0 -7 18 -30 40 -52 21 -22 39 -43 40 -47 0 -4 -51 -6
-114 -6 -62 0 -123 -3 -135 -7 -24 -7 -56 -61 -41 -70 6 -3 6 -15 0 -29 -5
-13 -6 -27 -3 -30 6 -5 6 -77 0 -141 -1 -16 1 -40 5 -52 4 -12 3 -25 -3 -28
-5 -4 -6 -11 -3 -17 6 -10 7 -80 1 -143 -1 -16 1 -40 5 -52 4 -12 3 -25 -3
-28 -5 -4 -6 -11 -3 -17 4 -6 7 -27 6 -47 -1 -34 20 -83 36 -79 14 3 42 -14
42 -27 0 -17 33 -45 55 -45 10 0 23 -7 30 -16 10 -15 57 -16 433 -16 232 0
426 3 432 7 6 3 8 11 5 16 -4 5 5 9 19 9 47 0 64 30 65 110 0 39 3 75 6 81 4
5 3 9 -2 9 -8 0 -7 108 1 143 2 9 1 17 -2 17 -7 0 -5 112 2 143 2 9 1 17 -2
17 -4 0 -6 41 -5 91 1 85 0 93 -23 116 -13 13 -29 21 -34 18 -6 -3 -14 4 -19
17 -16 42 -35 50 -126 49 -47 0 -85 2 -85 4 0 2 11 16 26 30 23 23 25 45 5 45
-4 0 -25 -18 -47 -40 -34 -35 -64 -51 -64 -34 0 3 20 25 45 50 41 40 50 64 26
64 -5 0 -35 -26 -68 -59 l-60 -59 -168 0 -169 0 -61 59 c-61 58 -85 71 -85 46z"/>
</g>
</svg>
